<svg width="188" height="40" viewBox="0 0 188 40" fill="none" xmlns="http://www.w3.org/2000/svg">
<path fill-rule="evenodd" clip-rule="evenodd" d="M10.0082 0V10.2789C11.0385 9.07743 12.1938 8.17972 13.4748 7.58581C14.7547 6.99222 16.2111 6.69496 17.842 6.69496C20.8046 6.69496 23.1227 7.5612 24.7966 9.29212C26.4845 10.995 27.3291 13.3407 27.3291 16.3305V32.7472H14.7946V17.6831C14.7946 16.695 14.5799 15.9263 14.1507 15.3754C13.7216 14.8254 13.0989 14.5494 12.2833 14.5494C11.5247 14.5494 10.7665 14.8856 10.0082 15.558V32.7472H0V0H10.0082ZM66.7219 6.90967L69.8341 13.7984L72.8176 6.90967H85.6955L71.7227 40H57.2996L62.6227 27.4252L53.5217 6.90967H66.7219ZM80.8085 24.3361C80.422 25.2588 80.2431 26.235 80.2718 27.2654C80.2718 30.6846 82.1748 32.9667 85.9807 34.1109C85.9383 34.669 85.8271 35.2192 85.6485 35.7633C85.4693 36.3067 85.2371 36.8146 84.951 37.2864C84.6646 37.7591 84.3212 38.195 83.9207 38.5957C83.5202 38.9961 83.0833 39.3326 82.6114 39.6046L82.9979 39.8832C86.3173 39.3255 89.0789 37.8444 91.2826 35.4411C93.5004 33.0237 94.6092 30.3848 94.6092 27.5228C94.6092 25.2482 93.9442 23.3882 92.6134 21.9434C91.2826 20.4835 89.5872 19.7547 87.5266 19.7547C86.5392 19.7401 85.6021 19.9261 84.7148 20.3125C83.8275 20.6985 83.0515 21.2351 82.3861 21.9219C81.7207 22.6086 81.1946 23.4135 80.8085 24.3361ZM42.075 16.974V16.8004C42.075 16.1062 42.2944 15.5409 42.7341 15.1047C43.1735 14.651 43.7233 14.4239 44.3825 14.4239C45.1186 14.4239 45.7095 14.6532 46.1542 15.1116C46.5996 15.5699 46.8383 16.1909 46.8713 16.974H42.075ZM33.4343 16.9741V16.7307C33.4343 15.7576 33.6836 14.9649 34.1832 14.3536C34.6822 13.7176 35.3064 13.3995 36.0553 13.3995C36.8915 13.3995 37.5625 13.7207 38.0677 14.3632C38.5735 15.006 38.8447 15.8766 38.8824 16.9741H33.4343ZM56.1356 20.6656C56.1356 17.8618 55.5419 15.351 54.3542 13.133C53.1808 10.9304 51.5213 9.25616 49.3746 8.11135C47.2428 6.95315 44.8459 6.37358 42.1847 6.37358C39.5518 6.37358 37.1976 6.93913 35.1229 8.06866C33.0765 9.17047 31.4812 10.73 30.3365 12.7473C29.2061 14.7359 28.6414 16.9959 28.6414 19.5282C28.6267 20.8731 28.7766 22.1463 29.0917 23.3478C29.4065 24.5493 29.868 25.6545 30.4761 26.6632C31.0844 27.6721 31.828 28.5807 32.7085 29.3884C33.5883 30.1973 34.5862 30.88 35.7025 31.4378C36.8189 31.9958 38.0384 32.4218 39.362 32.715C40.6853 33.0082 42.0912 33.1472 43.58 33.1332C46.2549 33.1332 48.6306 32.6795 50.7053 31.7709C52.7803 30.8619 54.583 29.4136 56.1141 27.4253V22.8975C55.699 23.3406 55.2268 23.7379 54.698 24.0881C54.1685 24.439 53.5997 24.7319 52.991 24.9681C52.383 25.2046 51.7357 25.3869 51.0491 25.5156C50.3622 25.6443 49.6678 25.7084 48.9669 25.7084C48.2084 25.7084 47.4968 25.6119 46.8315 25.419C46.1658 25.2252 45.5543 24.9463 44.9961 24.5823C44.4383 24.2175 43.9515 23.7734 43.5366 23.2512C43.1215 22.729 42.7996 22.1463 42.5711 21.5025H56.1356V20.6656ZM109.51 20.5332C112.459 20.5332 113.847 23.221 113.847 26.4006C113.847 29.5798 112.459 31.7765 109.626 31.7765C106.909 31.7765 105.348 29.6954 105.348 26.0538C105.348 22.643 106.764 20.5332 109.51 20.5332ZM109.944 33.655C113.731 33.655 116.073 30.678 116.073 26.2558C116.073 21.5445 113.384 18.6255 109.8 18.6255C107.718 18.6255 106.041 19.6369 105.348 21.169V12.8447H103.122V33.3658H105.348V31.1114C105.752 31.9499 107.082 33.655 109.944 33.655ZM130.526 26.9498V25.7358C129.629 26.2562 128.328 26.5743 126.854 26.8345C124.368 27.2966 122.922 27.9039 122.922 29.5513C122.922 31.1697 124.31 31.8637 125.9 31.8637C128.386 31.8637 130.526 30.0717 130.526 26.9498ZM132.694 23.2792V33.3665H130.526V30.6784C129.976 31.8057 128.415 33.6557 125.467 33.6557C122.865 33.6557 120.726 32.2395 120.726 29.5513C120.726 26.9498 122.547 25.8227 126.449 25.2444C129.196 24.8113 130.526 24.5511 130.526 23.0193C130.526 21.5448 129.167 20.4758 127.23 20.4758C124.888 20.4758 123.732 21.7184 123.559 23.8862H121.39C121.506 21.0538 123.241 18.6548 127.288 18.6548C130.323 18.6548 132.694 20.1866 132.694 23.2792ZM150.847 33.3663V24.1461C150.847 20.3886 149.17 18.6256 146.366 18.6256C143.273 18.6256 141.654 20.7934 140.787 23.4522V18.9147H138.561V33.3663H140.787V28.8861C140.787 23.6258 143.273 20.5042 145.788 20.5042C147.783 20.5042 148.563 21.8917 148.563 24.9557V33.3663H150.847ZM162.814 20.5334C159.894 20.5334 158.188 23.1059 158.188 26.1696C158.188 29.4644 160.096 31.7767 163.074 31.7767C165.473 31.7767 166.629 30.3895 167.005 28.5396H169.202C168.711 31.5745 166.6 33.6553 163.045 33.6553C158.477 33.6553 155.962 30.2739 155.962 26.1406C155.962 22.0072 158.564 18.6548 162.785 18.6548C166.225 18.6548 168.682 20.7936 169.029 23.9728H166.832C166.514 21.805 164.924 20.5334 162.814 20.5334ZM180.649 20.5044C183.626 20.5044 185.274 22.9614 185.274 26.1696C185.274 29.3488 183.626 31.8057 180.649 31.8057C177.671 31.8057 176.023 29.3488 176.023 26.1696C176.023 22.9614 177.671 20.5044 180.649 20.5044ZM180.649 18.6548C176.457 18.6548 173.797 21.776 173.797 26.1696C173.797 30.5341 176.457 33.6553 180.649 33.6553C184.84 33.6553 187.5 30.5341 187.5 26.1696C187.5 21.776 184.84 18.6548 180.649 18.6548Z" fill="#202020"/>
</svg>
